<svg width="310" height="52" viewBox="0 0 310 52" fill="none" xmlns="http://www.w3.org/2000/svg">
<g clip-path="url(#clip0_46_3)">
<path fill-rule="evenodd" clip-rule="evenodd" d="M207.046 7.56922C206.404 6.60113 206.092 5.61933 206.04 4.59049C205.965 3.11092 206.704 1.98214 208.192 1.7558C208.795 1.66467 209.385 1.90081 209.883 2.232C210.642 2.73858 211.284 3.37744 211.762 4.17013C211.937 4.45821 212.177 4.69827 212.393 4.95499C213.23 5.95051 214.318 6.57173 215.416 7.20471C215.814 7.434 216.182 7.57999 216.653 7.57901C223.049 7.57803 229.444 7.63193 235.84 7.59763C240.178 7.57412 244.516 7.57314 248.853 7.57412C269.07 7.58097 289.288 7.59959 309.505 7.61527C310.294 7.61625 310.294 7.61723 310.294 8.41874C310.294 20.3062 310.291 32.1947 310.306 44.0822C310.306 44.5515 310.184 44.6554 309.725 44.6554C281.326 44.6436 252.928 44.6456 224.529 44.6397C224.091 44.6397 223.705 44.7328 223.299 44.9082C221.801 45.5607 220.228 45.937 218.589 45.9958C217.425 46.0379 216.261 46.0752 215.097 46.1016C214.684 46.1114 214.376 46.2496 214.206 46.6493C214.046 47.0276 213.839 47.3862 213.701 47.7713C212.87 50.0808 211.1 51.2585 208.849 51.9425C206.446 52.6734 204.441 51.9464 202.62 50.4276C202.098 49.9936 201.437 49.8309 200.898 49.4341C199.325 48.2779 197.991 46.9374 197.444 44.9963C197.359 44.6916 197.239 44.6485 196.962 44.6367C195.605 44.5829 194.261 44.7494 192.912 44.8464C191.699 44.9336 190.481 44.9934 189.283 44.671C189.106 44.623 188.909 44.6456 188.72 44.6456C126.058 44.6446 63.3954 44.6446 0.733044 44.6446C-0.0468265 44.6446 -0.0468265 44.6456 -0.0468265 43.8862C-0.0468265 31.9821 -0.0438836 20.0769 -0.0576172 8.17182C-0.0576172 7.69954 0.0512705 7.56432 0.527041 7.61625C1.01753 7.66916 1.51978 7.61037 2.01713 7.61037H192.879C193.033 7.61037 193.189 7.62115 193.342 7.60253C193.606 7.5702 193.623 7.31152 193.681 7.13808C193.753 6.92644 193.505 6.98033 193.408 6.95583C192.609 6.76378 192.1 6.17196 191.719 5.54388C191.246 4.76196 190.925 3.885 190.771 2.96297C190.546 1.60882 191.316 0.498656 192.672 0.373236C193.934 0.256634 195.164 0.465341 196.299 1.06991C196.976 1.42951 197.467 1.9743 197.686 2.71017C197.916 3.48326 198.588 3.70275 199.206 3.8556C200.178 4.09567 201.215 3.9967 202.183 4.34161C202.847 4.57873 203.387 4.97165 203.852 5.48901C204.4 6.09847 205.038 6.62857 205.463 7.34581C205.555 7.49965 205.702 7.57706 205.895 7.57216C206.246 7.56236 206.602 7.56922 207.046 7.56922ZM225.08 43.8294H225.613C253.411 43.8294 281.211 43.8284 309.011 43.8392C309.407 43.8392 309.478 43.7314 309.478 43.36C309.467 31.8831 309.467 20.4062 309.477 8.92924C309.477 8.5716 309.428 8.44128 309.018 8.44128C278.492 8.45304 247.966 8.45206 217.44 8.45598C217.317 8.45598 217.167 8.38641 217.057 8.54416C217.929 9.4172 218.624 10.4411 219.468 11.3328C220.413 12.3332 221.276 13.3934 221.959 14.5859C223.344 17.0032 223.925 19.5968 223.544 22.3708C223.372 23.6161 222.273 24.5764 221.049 24.7302C220.186 24.839 219.346 24.7234 218.5 24.6166C216.821 24.4029 215.174 24.058 213.625 23.3408C212.889 22.9998 212.324 22.3992 211.659 21.9994C210.727 21.4389 209.706 21.0382 208.975 20.1063C208.721 21.0529 208.474 21.9132 208.029 22.697C208.744 22.894 209.419 23.0772 210.092 23.2663C213.509 24.2285 216.759 25.5817 219.779 27.4601C221.253 28.3782 222.625 29.4384 223.633 30.868C224.363 31.9027 225.441 32.617 226.152 33.7046V33.1138C226.152 26.3813 226.158 19.6497 226.14 12.9182C226.139 12.3881 226.298 12.2617 226.81 12.2637C231.784 12.2832 236.756 12.2842 241.73 12.2686C243.09 12.2646 244.429 12.4361 245.719 12.8182C249.8 14.0244 251.514 16.4985 251.744 20.2102C251.918 23.0351 251.828 25.861 251.847 28.6859C251.855 30.0047 251.788 31.3187 251.654 32.6317C251.332 35.8191 249.534 37.8288 246.635 38.9605C244.753 39.6944 242.767 39.8081 240.781 39.8169C236.357 39.8365 231.934 39.8228 227.51 39.7963C227.073 39.7934 226.952 39.9384 226.844 40.3274C226.496 41.5561 226.222 42.8309 225.08 43.8294ZM186.215 43.8294C185.853 43.4923 185.471 43.2375 185.148 42.9093C184.644 42.3949 184.031 42.1754 183.314 42.1754C123.24 42.1783 63.1678 42.1783 3.09522 42.1783C2.4311 42.1783 2.4311 42.1783 2.4311 41.4973V10.7684C2.4311 10.106 2.4311 10.106 3.11484 10.106C65.9832 10.106 128.852 10.107 191.72 10.1031C192.093 10.1031 192.56 10.2569 192.812 10.0276C193.008 9.84834 192.95 9.38879 193.001 9.05368C193.031 8.86163 193.152 8.68232 193.09 8.45304H192.571C128.829 8.45304 65.0856 8.45402 1.34321 8.44226C0.877247 8.44226 0.764435 8.55396 0.764435 9.01939C0.77915 20.4111 0.780131 31.8018 0.762474 43.1934C0.762474 43.7343 0.905695 43.8431 1.42659 43.8431C62.8549 43.8294 124.282 43.8303 185.71 43.8303C185.877 43.8294 186.046 43.8294 186.215 43.8294ZM24.2655 30.0126C24.1674 29.749 24.1017 29.5756 24.0379 29.4002C22.078 24.01 20.116 18.6199 18.1668 13.2259C18.053 12.9113 17.9285 12.78 17.5626 12.782C13.5671 12.7996 9.57158 12.7986 5.57609 12.784C5.19744 12.782 5.13367 12.9045 5.13466 13.2474C5.14348 21.8113 5.14348 30.3751 5.13367 38.9399C5.13367 39.2986 5.22883 39.3956 5.58884 39.3926C7.92061 39.376 10.2534 39.372 12.5851 39.3946C13.0177 39.3985 13.1541 39.3211 13.1521 38.8498C13.1315 33.6595 13.1384 28.4693 13.1423 23.2791C13.1423 23.1096 13.0805 22.9195 13.2149 22.7597C13.3846 22.8411 13.3905 22.9939 13.4337 23.1125C15.3544 28.389 17.2761 33.6654 19.1792 38.9478C19.3077 39.3044 19.4813 39.3926 19.8394 39.3916C23.8516 39.3789 27.8647 39.3779 31.8769 39.3916C32.2575 39.3926 32.3919 39.327 32.3919 38.9017C32.3772 30.3555 32.3781 21.8083 32.3899 13.2611C32.3899 12.8888 32.3193 12.7771 31.921 12.781C29.5892 12.8035 27.2565 12.8075 24.9247 12.78C24.4617 12.7742 24.3656 12.8947 24.3666 13.3415C24.3832 18.6689 24.3783 23.9953 24.3744 29.3228C24.3754 29.5168 24.4313 29.7225 24.2655 30.0126ZM105.053 24.1237C102.961 24.1237 100.868 24.1335 98.777 24.1159C98.42 24.1129 98.315 24.204 98.3199 24.5676C98.3415 25.9883 98.3454 27.4111 98.3179 28.8328C98.3101 29.2404 98.4278 29.3512 98.8261 29.3502C100.128 29.3472 101.431 29.3923 102.732 29.3933C103.06 29.3943 103.132 29.5119 103.133 29.8137C103.135 30.3653 103.084 30.9072 102.948 31.4412C102.723 32.326 101.945 32.9217 101.03 32.9149C100.688 32.9129 100.345 32.9207 100.002 32.9207C98.9222 32.9198 97.8422 32.9374 96.7631 32.91C95.6448 32.8825 94.8522 32.0173 94.8277 30.6191C94.7766 27.708 94.7688 24.7949 94.8296 21.8847C94.86 20.4738 95.4663 19.5321 97.2595 19.5753C98.5269 19.6056 99.7953 19.5733 101.064 19.5723C101.948 19.5713 102.719 20.1534 102.933 21.0323C103.01 21.3449 103.138 21.4252 103.447 21.4232C105.866 21.4095 108.284 21.4154 110.702 21.4154C111.676 21.4154 111.695 21.4144 111.635 20.4395C111.505 18.3661 110.961 16.4554 109.341 15.0111C107.509 13.3777 105.3 12.6791 102.9 12.6017C100.69 12.5321 98.4759 12.5958 96.2648 12.5723C94.5922 12.5547 92.9491 12.7036 91.3805 13.3209C89.4549 14.0783 87.8647 15.2326 86.9995 17.1903C86.4678 18.3936 86.3021 19.6674 86.2628 20.9715C86.1402 25.0105 86.0156 29.0513 86.3962 33.0805C86.5394 34.6012 87.1114 35.9877 88.2061 37.1096C89.9876 38.936 92.2408 39.7836 94.7129 39.8629C97.8098 39.9629 100.92 40.0736 104.013 39.7826C105.941 39.6013 107.699 38.8831 109.19 37.6181C110.905 36.165 111.499 34.2043 111.64 32.0506C111.8 29.5697 111.727 27.0858 111.757 24.6019C111.761 24.2266 111.675 24.109 111.279 24.1129C109.204 24.1345 107.129 24.1237 105.053 24.1237ZM113.008 25.9893C113.008 30.2879 113.013 34.5865 112.999 38.886C112.998 39.278 113.084 39.3985 113.498 39.3956C115.727 39.373 117.957 39.375 120.186 39.3936C120.579 39.3975 120.702 39.3103 120.699 38.8958C120.68 35.8299 120.697 32.764 120.679 29.698C120.677 29.26 120.745 29.0886 121.248 29.0954C123.768 29.1248 126.289 29.116 128.81 29.1013C129.184 29.0993 129.33 29.1572 129.326 29.5863C129.305 32.7032 129.321 35.8201 129.307 38.938C129.306 39.2976 129.4 39.3956 129.762 39.3926C132.025 39.376 134.289 39.373 136.552 39.3946C136.947 39.3985 137.025 39.2917 137.024 38.9154C137.012 30.3173 137.012 21.7182 137.024 13.12C137.024 12.7506 136.922 12.6781 136.57 12.6801C134.306 12.6977 132.043 12.7007 129.78 12.6791C129.382 12.6752 129.304 12.7898 129.306 13.1641C129.322 16.1958 129.308 19.2274 129.322 22.259C129.324 22.6402 129.256 22.7744 128.833 22.7705C126.312 22.748 123.791 22.749 121.271 22.7686C120.823 22.7725 120.669 22.6872 120.674 22.1963C120.701 19.1823 120.679 16.1674 120.697 13.1534C120.699 12.7673 120.608 12.6752 120.22 12.6791C118.008 12.6997 115.796 12.7016 113.584 12.6791C113.136 12.6742 112.991 12.7614 112.993 13.2464C113.018 17.4931 113.008 21.7407 113.008 25.9893ZM60.6772 22.649V30.6132C60.6772 31.4343 60.6595 32.2554 60.7772 33.0736C61.0136 34.7227 61.5698 36.2189 62.8019 37.3957C64.655 39.1653 66.9357 39.8982 69.4313 39.9893C71.3668 40.0609 73.3062 40.0001 75.2436 40.008C76.6611 40.0148 78.0384 39.7865 79.3587 39.2799C81.8985 38.306 83.6829 36.6324 84.2724 33.88C84.554 32.566 84.5981 31.2266 84.605 29.8969C84.6364 24.3304 84.6148 18.7649 84.6266 13.1984C84.6275 12.8447 84.5098 12.783 84.1871 12.7849C81.821 12.7977 79.4549 12.8035 77.0888 12.78C76.6719 12.7761 76.5963 12.9025 76.5973 13.2886C76.6091 19.0256 76.6032 24.7635 76.6091 30.5005C76.6091 30.9503 76.5453 31.3863 76.4364 31.8184C76.1961 32.7708 75.4349 33.3333 74.449 33.3254C73.1816 33.3156 71.9132 33.3156 70.6448 33.3254C69.6579 33.3333 68.8918 32.7728 68.6524 31.8243C68.5436 31.3932 68.4808 30.9562 68.4818 30.5064C68.4876 24.7694 68.4818 19.0314 68.4935 13.2944C68.4935 12.9162 68.4317 12.7761 68.004 12.781C65.7243 12.8045 63.4435 12.8055 61.1627 12.78C60.7311 12.7751 60.6683 12.9201 60.6703 13.2984C60.683 16.4143 60.6772 19.5321 60.6772 22.649ZM56.7651 39.3838H60.3652C60.9116 39.3838 60.9754 39.3044 60.8606 38.7655C60.8429 38.6832 60.8047 38.6048 60.7802 38.5235C58.2797 30.0909 55.7782 21.6584 53.2905 13.2229C53.1884 12.8761 53.0462 12.783 52.694 12.7849C49.0595 12.7996 45.426 12.8035 41.7925 12.781C41.3609 12.7781 41.2226 12.9192 41.1078 13.3062C39.087 20.1681 37.0495 27.024 35.016 33.882C34.5392 35.4909 34.0566 37.0968 33.5906 38.7087C33.416 39.3103 33.4808 39.3838 34.0478 39.3838C36.4472 39.3838 38.8476 39.375 41.2471 39.3946C41.6051 39.3965 41.7474 39.2986 41.8318 38.9497C42.128 37.7043 42.4684 36.4707 42.7774 35.2283C42.8529 34.9245 42.9638 34.7834 43.3209 34.7854C45.9263 34.804 48.5318 34.802 51.1372 34.7864C51.4413 34.7854 51.5541 34.8922 51.6228 35.1616C51.9367 36.4041 52.2781 37.6377 52.5783 38.8831C52.6675 39.2574 52.8029 39.4073 53.2159 39.3956C54.399 39.3632 55.582 39.3838 56.7651 39.3838ZM183.251 17.6508C183.032 16.4672 182.153 15.8852 181.288 15.31C180.573 14.8338 179.714 14.9249 178.911 14.821C177.92 14.6937 177.168 15.5471 177.292 16.5368C177.415 17.5244 177.878 18.325 178.585 18.9658C179.07 19.4057 179.539 19.9525 180.221 20.0691C180.663 20.1445 180.958 20.3297 181.211 20.6619C181.292 20.7687 181.406 20.8549 181.517 20.9343C181.697 21.0636 181.766 21.1851 181.712 21.4409C181.331 23.2075 181.734 24.7645 182.944 26.1373C184.025 27.3611 185.296 28.3184 186.718 29.0974C187.099 29.3051 187.486 29.5079 187.768 29.8489C187.673 29.991 187.559 29.9459 187.467 29.942C185.922 29.8793 184.501 30.1782 183.238 31.156C182.165 31.9869 181.113 32.7865 181.034 34.2945C181.029 34.3895 180.973 34.4807 180.932 34.5924C180.676 34.4865 180.547 34.2778 180.389 34.1034C180.043 33.7252 179.592 33.5292 179.104 33.5733C178.165 33.6586 177.251 33.88 176.425 34.3611C175.527 34.8834 175.418 35.681 176.141 36.4227C176.549 36.8411 177.024 37.1762 177.54 37.4535C178.172 37.7935 178.771 38.1737 179.354 38.6029C180.2 39.2251 181.073 39.8531 182.16 40.0148C182.323 40.0383 182.387 40.1549 182.474 40.2539C183.106 40.9702 183.844 41.5346 184.759 41.8422C185.021 41.9314 185.244 42.0666 185.434 42.2802C186.006 42.9181 186.735 43.3149 187.538 43.5883C189.431 44.2321 191.386 44.3692 193.358 44.2017C194.72 44.0861 196.06 43.8274 197.185 42.9406C197.333 42.824 197.441 42.6124 197.693 42.6192C197.747 43.4786 197.891 44.3203 198.166 45.1198C198.742 46.7914 199.978 47.9388 201.362 48.9559C201.861 49.3224 202.488 49.438 202.964 49.8525C204.601 51.2762 206.402 51.9993 208.625 51.3369C210.729 50.7088 212.363 49.6114 213.142 47.4734C213.311 47.0129 213.528 46.5729 213.761 46.1398C214 45.6969 214.376 45.5068 214.838 45.4775C215.708 45.4216 216.582 45.3628 217.453 45.3755C218.843 45.3971 220.2 45.2345 221.538 44.8562C222.437 44.6005 223.313 44.2752 224.103 43.7951C224.709 43.4257 225.221 42.9044 225.515 42.2205C226.072 40.9271 226.517 39.5759 226.706 38.1982C226.934 36.5423 226.127 35.1087 225.259 33.7467C224.786 33.0021 224.014 32.5102 223.526 31.7978C222.234 29.9126 220.475 28.5614 218.536 27.465C214.951 25.4396 211.133 23.9865 207.078 23.1968C206.882 23.1595 206.656 23.2134 206.467 22.9988C207.471 22.6559 207.789 21.8044 208.069 20.9059C208.324 20.0848 208.472 19.2431 208.585 18.3965C208.734 18.4141 208.772 18.4935 208.805 18.5699C209.368 19.9113 210.386 20.7589 211.719 21.2723C211.907 21.3449 212.11 21.4027 212.243 21.5751C212.797 22.2963 213.598 22.6373 214.405 22.9665C215.938 23.5907 217.554 23.8738 219.182 24.0786C219.855 24.1639 220.543 24.2344 221.221 24.0698C222.317 23.8043 223.001 22.797 223.033 21.4262C223.097 18.5464 222.281 15.9518 220.565 13.6266C219.902 12.7271 219.098 11.956 218.396 11.0937C217.316 9.76799 216.256 8.37269 214.732 7.56236C213.674 7.00189 212.813 6.2866 211.991 5.46157C211.751 5.22249 211.491 5.02162 211.323 4.71493C210.904 3.95065 210.305 3.33923 209.608 2.82775C208.435 1.9694 207.115 2.4652 206.741 3.8605C206.603 4.37002 206.672 4.86093 206.801 5.32635C207.089 6.36499 207.296 7.50455 208.764 7.69758C207.82 8.57062 207.92 9.75329 207.638 10.8605C207.559 10.7919 207.484 10.7488 207.442 10.6841C206.958 9.9326 206.359 9.27709 205.746 8.63137C204.887 7.72501 204.167 6.69813 203.27 5.82215C202.633 5.19995 201.901 4.85309 201.016 4.72865C199.912 4.57481 198.71 4.75902 197.784 3.90166C197.749 3.86932 197.692 3.85364 197.643 3.84287C197.355 3.77722 197.201 3.66258 197.18 3.30493C197.159 2.94435 196.979 2.59356 196.727 2.29569C195.903 1.32075 193.508 0.654451 192.337 1.09048C191.795 1.29135 191.276 1.96352 191.363 2.52693C191.576 3.91048 191.988 5.21955 193.16 6.13472C193.44 6.35323 193.772 6.4228 194.125 6.40026C194.266 6.39144 194.433 6.17196 194.537 6.47179C194.616 6.69519 194.698 6.85785 194.524 7.11457C193.583 8.49909 193.271 10.0786 193.486 11.6953C193.752 13.705 194.691 15.4697 195.835 17.1315C196.709 18.4024 197.746 19.4959 199.048 20.3268C199.479 20.6012 199.978 20.7824 200.374 21.095C201.442 21.9386 202.571 22.6657 203.889 23.1154C203.825 23.1556 203.799 23.183 203.767 23.1889C202.348 23.4545 201.116 24.0404 200.208 25.2133C199.973 25.519 199.923 25.2201 199.867 25.0575C199.502 23.9973 198.982 23.0243 198.277 22.1483C197.93 21.7182 197.38 21.4585 197.11 21.0058C196.41 19.83 195.445 18.9374 194.379 18.1221C193.538 17.4774 192.668 16.8817 191.675 16.4858C190.056 15.8401 188.366 15.8675 186.676 15.99C185.91 16.0459 185.177 16.2702 184.504 16.6828C184.07 16.9483 183.709 17.3099 183.251 17.6508ZM149.535 12.6879C146.037 12.6879 142.539 12.6958 139.041 12.6781C138.648 12.6762 138.56 12.782 138.565 13.1612C138.586 14.9083 138.588 16.6553 138.564 18.4024C138.558 18.8178 138.651 18.9511 139.089 18.9452C141.061 18.9207 143.034 18.9482 145.004 18.9237C145.44 18.9178 145.567 19.004 145.565 19.4694C145.547 25.9433 145.557 32.4181 145.544 38.8919C145.543 39.2956 145.645 39.3985 146.048 39.3956C148.329 39.375 150.61 39.372 152.89 39.3975C153.359 39.4024 153.479 39.2848 153.478 38.8125C153.461 32.373 153.47 25.9325 153.457 19.4929C153.456 19.0795 153.501 18.9109 153.992 18.9197C155.997 18.955 158.004 18.9256 160.01 18.9433C160.354 18.9462 160.443 18.8502 160.441 18.517C160.426 16.7357 160.419 14.9533 160.445 13.1729C160.451 12.7516 160.314 12.6781 159.927 12.6791C156.462 12.6948 152.998 12.6879 149.535 12.6879ZM176.57 16.7954C175.858 18.3318 175.151 19.8712 174.427 21.4027C174.357 21.5516 174.388 21.8044 174.128 21.8269C173.827 21.8514 173.831 21.5781 173.757 21.4125C172.493 18.6111 171.084 15.8734 169.933 13.0201C169.851 12.8182 169.772 12.6791 169.501 12.6811C166.964 12.6928 164.426 12.6928 161.889 12.682C161.633 12.6811 161.59 12.7634 161.572 12.9995C161.518 13.6531 161.717 14.1988 162.029 14.7799C164.675 19.7222 167.279 24.6861 169.902 29.6402C170.051 29.9224 170.112 30.2027 170.111 30.5201C170.103 33.3117 170.115 36.1033 170.096 38.8949C170.093 39.3083 170.214 39.3956 170.609 39.3926C172.957 39.373 175.306 39.3858 177.655 39.3769C177.799 39.3769 178.056 39.5014 178.077 39.2466C178.097 38.9977 178.228 38.6891 177.934 38.4921C177.638 38.2932 177.335 38.1041 177.029 37.9189C176.486 37.5907 175.96 37.2399 175.534 36.7617C174.774 35.9102 174.822 34.7286 175.73 34.0554C176.355 33.5929 177.038 33.1784 177.791 32.9413C178.055 32.859 178.101 32.7414 178.098 32.5112C178.09 31.9468 178.119 31.3804 178.088 30.817C178.062 30.3193 178.192 29.892 178.432 29.456C179.284 27.9 180.104 26.3283 180.939 24.7626C181.07 24.5176 181.134 24.2932 181.074 23.9914C180.942 23.3408 180.854 22.6794 180.984 22.0053C181.111 21.3439 180.773 20.8765 180.096 20.7178C179.841 20.658 179.6 20.5796 179.387 20.4356C178.07 19.5439 176.944 18.5033 176.57 16.7954ZM234.576 26.0334C234.576 28.0891 234.588 30.1429 234.565 32.1976C234.56 32.6131 234.644 32.7444 235.087 32.7375C237.108 32.7062 239.13 32.715 241.153 32.7091C242.024 32.7071 242.782 32.1427 243.018 31.3089C243.139 30.8797 243.213 30.4457 243.212 29.9959C243.206 27.3591 243.205 24.7224 243.213 22.0856C243.214 21.6692 243.15 21.2674 243.051 20.8706C242.825 19.9486 242.067 19.3646 241.112 19.3616C239.089 19.3558 237.066 19.3656 235.045 19.3411C234.66 19.3372 234.56 19.4312 234.565 19.8183C234.586 21.8896 234.576 23.962 234.576 26.0334ZM177.776 14.2763C179.135 14.0509 180.426 14.1685 181.635 14.7505C182.363 15.1003 182.94 15.6862 183.428 16.332C183.568 16.5172 183.625 16.4633 183.768 16.3702C184.357 15.988 184.972 15.6569 185.67 15.5167C185.851 15.4805 185.955 15.3668 186.052 15.21C186.455 14.5594 186.72 13.8882 186.643 13.0916C186.611 12.7565 186.536 12.6771 186.209 12.6801C184.119 12.6948 182.03 12.6869 179.941 12.6869C178.307 12.6869 178.307 12.6869 177.775 14.2459C177.769 14.2596 177.776 14.2763 177.776 14.2763ZM200.264 24.2325C200.715 23.622 201.368 23.3428 201.95 23.0116C200.667 22.0111 199.249 21.2292 197.869 20.3513C197.796 20.607 197.799 20.7942 198.004 20.9676C199.029 21.8367 199.712 22.9489 200.264 24.2325ZM207.264 9.32118C207.341 9.01253 207.407 8.74699 207.481 8.44422C207.145 8.48145 206.85 8.38641 206.553 8.51183C206.793 8.78324 207.004 9.02331 207.264 9.32118Z" fill="white"/>
<path fill-rule="evenodd" clip-rule="evenodd" d="M225.08 43.8296C226.222 42.8311 226.497 41.5563 226.842 40.3276C226.951 39.9386 227.071 39.7936 227.508 39.7965C231.932 39.822 236.355 39.8357 240.78 39.8171C242.765 39.8083 244.751 39.6946 246.633 38.9607C249.533 37.829 251.33 35.8193 251.653 32.6319C251.786 31.3179 251.854 30.004 251.845 28.6861C251.826 25.8602 251.916 23.0343 251.742 20.2104C251.512 16.4988 249.799 14.0247 245.718 12.8185C244.428 12.4363 243.089 12.2658 241.728 12.2688C236.755 12.2854 231.782 12.2835 226.809 12.2639C226.296 12.2619 226.138 12.3883 226.139 12.9184C226.156 19.6499 226.15 26.3815 226.15 33.114V33.7048C225.439 32.6182 224.361 31.9029 223.631 30.8682C222.624 29.4386 221.252 28.3784 219.777 27.4603C216.758 25.5819 213.508 24.2288 210.09 23.2665C209.417 23.0774 208.742 22.8942 208.027 22.6973C208.472 21.9134 208.72 21.0531 208.974 20.1066C209.705 21.0374 210.727 21.4382 211.657 21.9996C212.323 22.3994 212.888 23 213.623 23.341C215.173 24.0573 216.819 24.4032 218.499 24.6168C219.344 24.7236 220.183 24.8402 221.047 24.7304C222.272 24.5766 223.37 23.6154 223.542 22.371C223.923 19.597 223.342 17.0024 221.958 14.5861C221.275 13.3927 220.413 12.3334 219.466 11.333C218.622 10.4414 217.927 9.41743 217.056 8.54438C217.165 8.38663 217.315 8.4562 217.438 8.4562C247.964 8.45228 278.49 8.45326 309.016 8.4415C309.426 8.4415 309.476 8.57182 309.475 8.92946C309.465 20.4064 309.465 31.8833 309.476 43.3602C309.476 43.7316 309.406 43.8394 309.009 43.8394C281.21 43.8286 253.41 43.8296 225.611 43.8296H225.08ZM297.873 23.9172C295.781 23.9172 293.689 23.927 291.599 23.9083C291.231 23.9054 291.144 24.0132 291.149 24.3669C291.169 25.7877 291.175 27.2094 291.146 28.6312C291.139 29.0447 291.266 29.1456 291.658 29.1446C292.959 29.1417 294.261 29.1858 295.563 29.1858C295.891 29.1858 295.961 29.3044 295.963 29.6061C295.967 30.1754 295.914 30.7339 295.764 31.2827C295.536 32.1155 294.772 32.7054 293.912 32.7083C292.489 32.7123 291.068 32.7103 289.646 32.7074C289.404 32.7074 289.179 32.6368 288.951 32.5525C287.946 32.1812 287.674 31.3179 287.661 30.4106C287.616 27.5005 287.597 24.5884 287.663 21.6782C287.694 20.2829 288.26 19.3178 290.143 19.3707C291.393 19.405 292.644 19.3697 293.895 19.3687C294.778 19.3677 295.54 19.9429 295.764 20.8267C295.842 21.1364 295.968 21.2197 296.279 21.2187C298.663 21.204 301.044 21.2099 303.428 21.2099C304.511 21.2099 304.531 21.2089 304.458 20.132C304.326 18.1518 303.801 16.3195 302.288 14.9124C300.446 13.1977 298.194 12.4765 295.738 12.3942C293.529 12.3207 291.316 12.3824 289.104 12.3648C287.66 12.353 286.233 12.4432 284.851 12.8939C282.637 13.6141 280.798 14.7987 279.816 17.0161C279.291 18.2017 279.132 19.4608 279.093 20.7483C278.972 24.7696 278.849 28.7909 279.22 32.8044C279.369 34.4211 279.975 35.8762 281.162 37.0363C282.927 38.7608 285.12 39.58 287.518 39.6564C290.615 39.7564 293.723 39.8612 296.817 39.579C298.728 39.4046 300.472 38.6991 301.961 37.4635C303.689 36.03 304.316 34.0821 304.462 31.9254C304.633 29.4112 304.559 26.893 304.591 24.3767C304.596 23.973 304.464 23.9064 304.095 23.9093C302.022 23.926 299.948 23.9172 297.873 23.9172ZM252.675 25.9915C252.681 28.251 252.613 30.5125 252.884 32.7622C253.08 34.3946 253.647 35.8723 254.854 37.0412C256.708 38.8392 259.003 39.5927 261.518 39.678C263.745 39.7534 265.975 39.6878 268.203 39.7093C269.858 39.725 271.485 39.5702 273.038 38.9637C275.549 37.9819 277.331 36.3298 277.92 33.5961C278.111 32.7064 278.174 31.8039 278.198 30.8966C278.299 27.0292 278.415 23.1588 278.053 19.2982C277.895 17.6226 277.257 16.1205 276.001 14.9408C274.152 13.2035 271.887 12.4745 269.413 12.3922C267.204 12.3187 264.991 12.3795 262.78 12.3638C261.44 12.353 260.109 12.4148 258.82 12.8018C254.771 14.0188 253.019 16.4576 252.78 20.1879C252.657 22.1221 252.669 24.0563 252.675 25.9915ZM186.215 43.8296H185.709C124.281 43.8296 62.8542 43.8286 1.42584 43.8423C0.90494 43.8423 0.761719 43.7335 0.761719 43.1927C0.780357 31.801 0.778395 20.4103 0.764662 9.01863C0.764662 8.5532 0.877473 8.4415 1.34343 8.4415C65.0859 8.45326 128.829 8.45228 192.572 8.45228H193.091C193.152 8.68156 193.03 8.86087 193.001 9.05292C192.949 9.38803 193.008 9.84856 192.812 10.0269C192.56 10.2562 192.093 10.1023 191.72 10.1023C128.853 10.1063 65.9835 10.1053 3.11507 10.1053C2.43133 10.1053 2.43133 10.1053 2.43133 10.7677V41.4966C2.43133 42.1776 2.43133 42.1776 3.09545 42.1776C63.1681 42.1776 123.242 42.1776 183.314 42.1746C184.031 42.1746 184.644 42.3941 185.149 42.9085C185.471 43.2377 185.854 43.4925 186.215 43.8296Z" fill="#231F20"/>
<path fill-rule="evenodd" clip-rule="evenodd" d="M24.2656 30.0126C24.4314 29.7225 24.3745 29.5167 24.3745 29.3227C24.3785 23.9953 24.3834 18.6689 24.3667 13.3415C24.3657 12.8947 24.4618 12.7741 24.9249 12.78C27.2566 12.8075 29.5884 12.8035 31.9211 12.781C32.3194 12.7771 32.391 12.8888 32.39 13.2611C32.3792 21.8083 32.3783 30.3555 32.392 38.9017C32.392 39.327 32.2576 39.3926 31.877 39.3916C27.8648 39.3779 23.8517 39.3789 19.8395 39.3916C19.4815 39.3926 19.3078 39.3044 19.1793 38.9478C17.2762 33.6644 15.3555 28.3889 13.4338 23.1125C13.3906 22.9939 13.3847 22.8411 13.215 22.7597C13.0806 22.9195 13.1424 23.1095 13.1424 23.2791C13.1385 28.4693 13.1316 33.6595 13.1522 38.8498C13.1542 39.3201 13.0188 39.3985 12.5852 39.3946C10.2535 39.373 7.92171 39.3759 5.58897 39.3926C5.22895 39.3955 5.13282 39.2985 5.1338 38.9399C5.14361 30.3761 5.14361 21.8122 5.13478 13.2474C5.13478 12.9045 5.19756 12.782 5.57621 12.7839C9.5717 12.7986 13.5672 12.7996 17.5627 12.782C17.9286 12.78 18.0532 12.9113 18.167 13.2258C20.1161 18.6199 22.0781 24.01 24.0381 29.4001C24.1018 29.5755 24.1676 29.75 24.2656 30.0126ZM105.053 24.1237C107.128 24.1237 109.203 24.1354 111.279 24.1139C111.675 24.11 111.761 24.2275 111.757 24.6028C111.727 27.0858 111.801 29.5697 111.64 32.0516C111.499 34.2043 110.905 36.165 109.19 37.6191C107.699 38.8841 105.941 39.6023 104.014 39.7836C100.921 40.0746 97.8089 39.9639 94.713 39.8639C92.24 39.7845 89.9877 38.938 88.2062 37.1105C87.1124 35.9876 86.5405 34.6012 86.3963 33.0814C86.0157 29.0523 86.1403 25.0114 86.2629 20.9725C86.3022 19.6683 86.4679 18.3936 86.9996 17.1913C87.8649 15.2336 89.455 14.0793 91.3806 13.3219C92.9482 12.7046 94.5914 12.5566 96.2649 12.5733C98.476 12.5968 100.69 12.5331 102.9 12.6027C105.302 12.6801 107.509 13.3787 109.341 15.0121C110.961 16.4564 111.505 18.3671 111.635 20.4404C111.696 21.4154 111.676 21.4164 110.702 21.4164C108.284 21.4164 105.866 21.4105 103.448 21.4242C103.139 21.4262 103.01 21.3458 102.934 21.0333C102.719 20.1543 101.948 19.5723 101.064 19.5733C99.7954 19.5743 98.527 19.6066 97.2596 19.5762C95.4664 19.5331 94.8601 20.4747 94.8297 21.8857C94.7679 24.7959 94.7768 27.7089 94.8278 30.6201C94.8523 32.0183 95.6449 32.8835 96.7632 32.9109C97.8423 32.9374 98.9223 32.9207 100.002 32.9217C100.345 32.9217 100.688 32.9139 101.03 32.9158C101.945 32.9227 102.723 32.3269 102.948 31.4421C103.085 30.9081 103.135 30.3663 103.133 29.8146C103.132 29.5128 103.06 29.3952 102.732 29.3943C101.431 29.3933 100.128 29.3482 98.8262 29.3512C98.4279 29.3521 98.3102 29.2414 98.3181 28.8338C98.3455 27.413 98.3416 25.9903 98.32 24.5685C98.3151 24.205 98.4201 24.1139 98.7772 24.1168C100.87 24.1325 102.962 24.1237 105.053 24.1237ZM113.008 25.9893C113.008 21.7407 113.018 17.4931 112.995 13.2454C112.993 12.7604 113.139 12.6732 113.586 12.6781C115.797 12.7007 118.01 12.6987 120.222 12.6781C120.61 12.6742 120.701 12.7673 120.699 13.1524C120.681 16.1664 120.702 19.1813 120.676 22.1953C120.672 22.6863 120.825 22.7715 121.273 22.7676C123.793 22.747 126.314 22.747 128.835 22.7695C129.258 22.7735 129.326 22.6382 129.325 22.2581C129.31 19.2264 129.324 16.1948 129.308 13.1631C129.306 12.7888 129.385 12.6742 129.782 12.6781C132.046 12.6987 134.309 12.6967 136.572 12.6791C136.923 12.6771 137.026 12.7496 137.026 13.119C137.014 21.7172 137.014 30.3163 137.026 38.9144C137.026 39.2907 136.948 39.3975 136.554 39.3936C134.291 39.373 132.027 39.375 129.764 39.3916C129.402 39.3946 129.307 39.2966 129.309 38.937C129.324 35.8191 129.307 32.7022 129.328 29.5853C129.331 29.1562 129.185 29.0984 128.812 29.1003C126.291 29.116 123.77 29.1238 121.25 29.0944C120.747 29.0876 120.678 29.259 120.681 29.697C120.699 32.763 120.681 35.8289 120.701 38.8948C120.704 39.3093 120.581 39.3965 120.188 39.3926C117.959 39.373 115.729 39.372 113.501 39.3946C113.087 39.3985 112.999 39.278 113.001 38.885C113.014 34.5865 113.008 30.2879 113.008 25.9893ZM60.6773 22.649C60.6773 19.5321 60.6832 16.4152 60.6694 13.2974C60.6675 12.9182 60.7303 12.7741 61.1619 12.779C63.4417 12.8045 65.7224 12.8035 68.0032 12.78C68.4309 12.7751 68.4927 12.9162 68.4927 13.2935C68.4819 19.0305 68.4868 24.7684 68.4809 30.5054C68.4809 30.9552 68.5427 31.3912 68.6516 31.8233C68.8909 32.7718 69.6571 33.3323 70.6439 33.3244C71.9113 33.3146 73.1797 33.3146 74.4481 33.3244C75.434 33.3323 76.1962 32.7698 76.4356 31.8174C76.5445 31.3863 76.6092 30.9493 76.6082 30.4995C76.6023 24.7625 76.6082 19.0246 76.5965 13.2876C76.5955 12.9015 76.671 12.7761 77.0879 12.779C79.454 12.8016 81.8201 12.7967 84.1862 12.7839C84.5089 12.782 84.6267 12.8437 84.6257 13.1974C84.6139 18.7639 84.6355 24.3295 84.6041 29.8959C84.5972 31.2256 84.5531 32.566 84.2716 33.879C83.682 36.6314 81.8986 38.305 79.3579 39.2789C78.0365 39.7865 76.6602 40.0138 75.2427 40.007C73.3053 39.9991 71.3659 40.0609 69.4305 39.9884C66.9349 39.8962 64.6541 39.1633 62.8011 37.3947C61.569 36.2179 61.0128 34.7207 60.7764 33.0726C60.6596 32.2544 60.6773 31.4333 60.6763 30.6122C60.6773 27.9588 60.6773 25.3034 60.6773 22.649ZM56.7652 39.3838C55.5821 39.3838 54.3991 39.3632 53.217 39.3955C52.804 39.4073 52.6686 39.2564 52.5794 38.8831C52.2792 37.6377 51.9378 36.4041 51.6239 35.1616C51.5552 34.8932 51.4424 34.7854 51.1383 34.7864C48.5329 34.802 45.9274 34.804 43.322 34.7854C42.9649 34.7834 42.854 34.9255 42.7785 35.2283C42.4695 36.4707 42.1291 37.7043 41.8329 38.9497C41.7495 39.2985 41.6062 39.3965 41.2482 39.3946C38.8487 39.375 36.4483 39.3838 34.0489 39.3838C33.4819 39.3838 33.4171 39.3103 33.5917 38.7087C34.0577 37.0968 34.5403 35.4909 35.0171 33.882C37.0506 27.024 39.0881 20.1681 41.1089 13.3062C41.2237 12.9182 41.362 12.7781 41.7936 12.781C45.4271 12.8026 49.0616 12.7996 52.6951 12.7849C53.0473 12.783 53.1886 12.876 53.2916 13.2229C55.7793 21.6584 58.2808 30.0909 60.7813 38.5235C60.8048 38.6048 60.8431 38.6832 60.8617 38.7655C60.9765 39.3044 60.9117 39.3838 60.3663 39.3838H56.7652ZM44.4628 29.3933H49.9631C49.1146 26.4293 48.2778 23.4976 47.4303 20.5688C47.392 20.4375 47.4401 20.2082 47.237 20.1916C46.981 20.171 47.0369 20.4365 46.9977 20.5717C46.4238 22.5383 45.8666 24.5097 45.3035 26.4782C45.0279 27.4444 44.7473 28.4095 44.4628 29.3933ZM183.251 17.6508C183.71 17.3098 184.07 16.9483 184.508 16.6808C185.181 16.2683 185.914 16.0439 186.68 15.988C188.37 15.8656 190.06 15.8381 191.679 16.4838C192.672 16.8797 193.542 17.4754 194.383 18.1202C195.448 18.9354 196.414 19.828 197.114 21.0039C197.384 21.4565 197.935 21.7162 198.281 22.1464C198.985 23.0223 199.506 23.9953 199.871 25.0555C199.927 25.2182 199.977 25.517 200.212 25.2113C201.12 24.0384 202.352 23.4525 203.771 23.187C203.802 23.1811 203.828 23.1536 203.893 23.1135C202.575 22.6637 201.446 21.9377 200.378 21.093C199.982 20.7805 199.483 20.5992 199.052 20.3248C197.75 19.4939 196.713 18.4004 195.839 17.1296C194.695 15.4677 193.756 13.703 193.49 11.6934C193.275 10.0776 193.587 8.49712 194.528 7.1126C194.702 6.8549 194.619 6.69225 194.541 6.46982C194.437 6.16901 194.269 6.38947 194.129 6.39829C193.775 6.41985 193.444 6.35028 193.164 6.13275C191.992 5.21758 191.58 3.90851 191.367 2.52496C191.28 1.96155 191.799 1.28938 192.341 1.08851C193.512 0.653461 195.907 1.31878 196.731 2.29372C196.983 2.59257 197.163 2.94238 197.184 3.30296C197.205 3.6606 197.359 3.77427 197.647 3.8409C197.696 3.85167 197.753 3.86637 197.788 3.89969C198.715 4.75705 199.917 4.57284 201.02 4.72668C201.906 4.85112 202.637 5.19798 203.274 5.82018C204.172 6.69714 204.891 7.72304 205.75 8.6294C206.362 9.27512 206.962 9.93063 207.446 10.6822C207.487 10.7459 207.563 10.789 207.642 10.8585C207.925 9.75132 207.824 8.56865 208.768 7.69561C207.3 7.50258 207.093 6.36302 206.805 5.32438C206.677 4.85895 206.608 4.36707 206.745 3.85853C207.119 2.46323 208.439 1.96743 209.612 2.82578C210.308 3.33628 210.907 3.94868 211.327 4.71296C211.494 5.01965 211.755 5.22052 211.995 5.4596C212.818 6.28463 213.679 6.99894 214.736 7.56039C216.261 8.37072 217.321 9.767 218.401 11.0917C219.102 11.954 219.906 12.7251 220.569 13.6246C222.285 15.9498 223.101 18.5444 223.037 21.4242C223.005 22.795 222.321 23.8023 221.225 24.0678C220.547 24.2324 219.859 24.1619 219.186 24.0767C217.558 23.8719 215.941 23.5887 214.409 22.9645C213.602 22.6353 212.801 22.2943 212.247 21.5731C212.114 21.4007 211.911 21.3439 211.723 21.2704C210.39 20.7579 209.372 19.9094 208.809 18.568C208.776 18.4915 208.738 18.4122 208.589 18.3945C208.476 19.2401 208.327 20.0828 208.073 20.9039C207.793 21.8024 207.475 22.6539 206.471 22.9969C206.66 23.2114 206.886 23.1576 207.082 23.1948C211.137 23.9855 214.955 25.4377 218.54 27.463C220.479 28.5594 222.238 29.9106 223.53 31.7959C224.018 32.5092 224.79 33.0001 225.263 33.7448C226.131 35.1068 226.938 36.5403 226.71 38.1962C226.521 39.5739 226.076 40.9251 225.519 42.2185C225.225 42.9024 224.713 43.4237 224.107 43.7931C223.316 44.2732 222.44 44.5985 221.542 44.8543C220.205 45.2335 218.848 45.3961 217.457 45.3736C216.586 45.3599 215.712 45.4196 214.842 45.4755C214.38 45.5039 214.004 45.695 213.765 46.1379C213.532 46.5709 213.315 47.0119 213.146 47.4714C212.367 49.6104 210.733 50.7079 208.629 51.335C206.406 51.9983 204.605 51.2742 202.968 49.8505C202.492 49.436 201.864 49.3204 201.366 48.9539C199.982 47.9369 198.746 46.7895 198.17 45.1178C197.895 44.3193 197.751 43.4766 197.697 42.6173C197.445 42.6104 197.337 42.8221 197.189 42.9387C196.065 43.8254 194.724 44.0841 193.362 44.1997C191.39 44.3673 189.435 44.2301 187.542 43.5863C186.739 43.313 186.009 42.9161 185.438 42.2782C185.248 42.0646 185.025 41.9294 184.763 41.8403C183.847 41.5326 183.109 40.9682 182.478 40.2519C182.391 40.152 182.327 40.0364 182.164 40.0128C181.077 39.8512 180.204 39.2221 179.358 38.6009C178.775 38.1717 178.176 37.7915 177.544 37.4515C177.029 37.1742 176.553 36.8391 176.145 36.4207C175.422 35.678 175.532 34.8814 176.429 34.3591C177.255 33.879 178.169 33.6566 179.108 33.5714C179.597 33.5273 180.047 33.7232 180.393 34.1014C180.552 34.2759 180.68 34.4846 180.936 34.5904C180.976 34.4797 181.033 34.3876 181.038 34.2925C181.118 32.7845 182.169 31.985 183.242 31.1541C184.505 30.1762 185.926 29.8764 187.472 29.94C187.563 29.944 187.678 29.989 187.772 29.847C187.49 29.506 187.102 29.3031 186.722 29.0954C185.301 28.3164 184.029 27.3601 182.948 26.1353C181.738 24.7625 181.335 23.2056 181.716 21.4389C181.771 21.1832 181.701 21.0617 181.521 20.9323C181.41 20.853 181.296 20.7667 181.215 20.6599C180.963 20.3268 180.667 20.1426 180.225 20.0671C179.543 19.9505 179.074 19.4038 178.589 18.9638C177.882 18.323 177.42 17.5215 177.296 16.5348C177.172 15.5451 177.924 14.6917 178.915 14.8191C179.718 14.9229 180.577 14.8318 181.292 15.308C182.153 15.8851 183.032 16.4672 183.251 17.6508ZM198.321 40.9231C198.296 41.8716 198.547 42.7848 198.643 43.7157C198.728 44.5456 198.974 45.3011 199.44 46.0017C200.24 47.2049 201.316 48.077 202.578 48.7364C203.633 49.2881 204.754 49.4635 205.909 49.1587C207.637 48.7001 209.067 47.8428 209.946 46.1839C210.341 45.4402 210.609 44.6505 210.98 43.9009C211.043 43.7745 211.08 43.6765 211.224 43.6108C211.705 43.3874 212.218 43.2258 212.733 43.2218C214.226 43.2071 215.71 43.0798 217.197 43.0033C218.458 42.9387 219.645 42.5644 220.769 42.0392C222.17 41.3846 223.029 40.2353 223.493 38.7537C223.96 37.2654 224.273 35.7897 223.78 34.2484C222.985 31.7586 221.29 29.9381 219.132 28.6535C216.016 26.7996 212.686 25.3612 209.149 24.4529C207.617 24.059 206.094 23.7151 204.489 23.8856C202.177 24.1315 200.632 25.0957 200.018 27.413C199.904 27.8402 199.774 28.2635 199.677 28.6947C199.272 30.5093 198.991 32.3446 198.755 34.1857C198.622 35.2175 198.362 36.2385 198.447 37.2918C198.486 37.769 198.532 38.2432 198.486 38.7253C198.414 39.4553 198.375 40.1902 198.321 40.9231ZM192.967 29.748C193.465 29.7294 193.97 29.7695 194.449 29.6255C195.172 29.4041 195.974 29.3913 196.573 28.825C197.414 28.0293 197.86 27.0642 197.848 25.908C197.823 23.4202 196.77 21.3791 195.119 19.5772C194.457 18.8551 193.548 18.517 192.809 17.9222C192.343 17.546 191.791 17.2981 191.218 17.1109C189.567 16.5681 187.866 16.5456 186.189 16.8415C184.801 17.0864 183.737 17.8615 183.171 19.2578C182.841 20.0701 182.586 20.8971 182.423 21.7446C182.234 22.7294 182.278 23.7063 182.791 24.6234C183.665 26.1853 185.013 27.3131 186.521 28.1126C188.501 29.162 190.696 29.6814 192.967 29.748ZM189.834 41.8746C190.334 41.9186 190.821 41.8128 191.311 41.7658C192.754 41.6286 194.112 41.319 195.271 40.3382C196.514 39.2868 197.406 38.1266 197.105 36.3855C197.036 35.9847 196.985 35.58 196.903 35.1812C196.678 34.0867 196.069 33.2676 195.096 32.714C194.726 32.5033 194.366 32.275 194.003 32.0516C192.816 31.3236 191.471 31.0375 190.138 30.8013C189.086 30.6152 188 30.7043 186.922 30.7357C185.723 30.769 184.68 31.0404 183.722 31.7371C182.985 32.274 182.155 32.7953 181.925 33.7026C181.663 34.7432 181.416 35.8172 181.662 36.9273C182.124 39.0105 183.226 40.5498 185.307 41.2259C186.773 41.7001 188.312 41.758 189.834 41.8746ZM205.762 14.7074C205.762 14.484 205.755 14.2625 205.763 14.0401C205.861 11.3377 205.283 8.88906 203.282 6.89311C202.491 6.10434 201.718 5.51545 200.533 5.42922C199.182 5.33124 197.923 5.28617 196.728 6.10728C195.76 6.77161 194.936 7.47612 194.589 8.65291C194.492 8.98214 194.439 9.31235 194.379 9.64158C194.182 10.7027 194.196 11.7443 194.522 12.8035C194.974 14.2743 195.678 15.5922 196.553 16.8483C197.811 18.6532 199.475 19.9348 201.54 20.6031C203.525 21.2439 204.874 20.5551 205.48 18.4269C205.824 17.207 205.752 15.9537 205.762 14.7074ZM217.712 21.6221H218.329C219.09 21.6182 219.78 21.1499 219.992 20.414C220.523 18.5621 220.299 16.7249 219.55 15.0082C218.621 12.878 217.487 10.8536 215.743 9.22808C214.462 8.03169 213.033 7.24782 211.249 7.34874C210.193 7.40851 208.835 8.15613 208.637 9.55241C208.473 10.7057 208.338 11.859 208.33 13.022C208.317 14.7044 208.822 16.3026 209.31 17.8801C209.689 19.1069 210.519 20.0612 211.793 20.509C213.707 21.1822 215.664 21.6486 217.712 21.6221ZM193.556 1.79204C192.311 1.77146 192.045 1.99487 192.175 2.83264C192.287 3.54596 192.544 4.225 192.929 4.83152C193.452 5.65753 194.045 5.81038 194.887 5.37729C195.39 5.11763 195.855 4.78547 196.167 4.2975C196.581 3.64983 196.546 3.1648 196.034 2.6494C195.282 1.89296 194.293 1.88415 193.556 1.79204ZM179.237 15.5834C178.204 15.5295 177.92 15.8842 178.097 16.7259C178.309 17.7292 179.032 18.3397 179.761 18.9805C180.247 19.4057 180.701 19.4136 181.213 19.1833C181.738 18.9472 182.095 18.5102 182.245 17.9712C182.375 17.5039 182.293 17.0806 181.877 16.6876C181.058 15.9136 180.132 15.5206 179.237 15.5834ZM180.543 36.3443C180.544 35.0725 179.84 34.2778 178.887 34.3778C178.19 34.4522 177.509 34.6315 176.886 34.9735C176.355 35.2655 176.304 35.5536 176.738 35.9622C177.457 36.6432 178.329 37.0851 179.241 37.4339C179.923 37.6945 180.315 37.4633 180.497 36.7549C180.542 36.5765 180.539 36.3835 180.543 36.3443ZM207.432 4.40627C207.489 5.03925 207.605 5.65949 207.872 6.24152C208.14 6.82452 208.33 6.89409 208.971 6.75202C209.395 6.65697 209.784 6.49138 210.154 6.27581C210.63 5.99753 210.762 5.58306 210.574 5.05296C210.328 4.35434 209.791 3.90557 209.228 3.48129C208.876 3.21575 208.467 3.04722 208.034 3.24123C207.548 3.45974 207.469 3.93104 207.432 4.40627ZM195.411 32.0516C196.349 32.7228 197.021 33.4322 197.421 34.3709C197.459 34.4561 197.551 34.5228 197.628 34.5845C197.815 34.7305 197.902 34.709 197.936 34.4424C198.048 33.5331 198.187 32.6278 198.324 31.6626C197.41 32.0065 196.482 32.0085 195.411 32.0516ZM149.535 12.6879C152.999 12.6879 156.463 12.6948 159.927 12.6791C160.314 12.6781 160.451 12.7516 160.445 13.1729C160.419 14.9533 160.426 16.7357 160.441 18.517C160.443 18.8502 160.355 18.9462 160.01 18.9432C158.004 18.9246 155.997 18.955 153.992 18.9197C153.502 18.9109 153.456 19.0794 153.457 19.4929C153.47 25.9325 153.46 32.373 153.478 38.8125C153.479 39.2838 153.359 39.4024 152.89 39.3975C150.61 39.372 148.329 39.375 146.048 39.3955C145.645 39.3985 145.543 39.2956 145.544 38.8919C145.558 32.4181 145.547 25.9433 145.565 19.4694C145.566 19.004 145.44 18.9178 145.004 18.9236C143.033 18.9481 141.06 18.9207 139.089 18.9452C138.651 18.9511 138.558 18.8178 138.564 18.4024C138.588 16.6563 138.586 14.9092 138.565 13.1612C138.561 12.782 138.648 12.6762 139.041 12.6781C142.539 12.6948 146.037 12.6879 149.535 12.6879Z" fill="#231F20"/>
<path fill-rule="evenodd" clip-rule="evenodd" d="M176.57 16.7955C176.944 18.5034 178.07 19.544 179.389 20.4367C179.602 20.5807 179.842 20.6601 180.097 20.7188C180.775 20.8776 181.112 21.3459 180.986 22.0064C180.856 22.6805 180.943 23.3419 181.075 23.9925C181.136 24.2953 181.071 24.5187 180.941 24.7636C180.105 26.3294 179.286 27.9011 178.433 29.4571C178.194 29.8922 178.063 30.3203 178.09 30.8181C178.12 31.3815 178.092 31.9479 178.1 32.5123C178.103 32.7425 178.056 32.8601 177.793 32.9424C177.039 33.1795 176.356 33.594 175.732 34.0565C174.824 34.7296 174.775 35.9113 175.535 36.7628C175.962 37.24 176.488 37.5918 177.03 37.92C177.336 38.1042 177.64 38.2943 177.936 38.4932C178.229 38.6892 178.099 38.9988 178.078 39.2477C178.057 39.5025 177.8 39.378 177.656 39.378C175.307 39.3869 172.958 39.3741 170.61 39.3937C170.216 39.3966 170.094 39.3094 170.097 38.8959C170.117 36.1044 170.104 33.3128 170.113 30.5212C170.113 30.2037 170.053 29.9235 169.904 29.6413C167.28 24.6872 164.675 19.7233 162.03 14.781C161.718 14.199 161.519 13.6542 161.573 13.0006C161.593 12.7645 161.634 12.6822 161.89 12.6831C164.428 12.6939 166.965 12.6939 169.502 12.6822C169.773 12.6802 169.854 12.8193 169.934 13.0212C171.086 15.8745 172.494 18.6122 173.759 21.4136C173.833 21.5792 173.829 21.8525 174.13 21.828C174.391 21.8065 174.358 21.5537 174.429 21.4038C175.152 19.8713 175.859 18.3319 176.57 16.7955ZM234.576 26.0335C234.576 23.9621 234.587 21.8898 234.566 19.8184C234.562 19.4304 234.662 19.3373 235.046 19.3412C237.069 19.3647 239.091 19.3559 241.113 19.3618C242.069 19.3647 242.825 19.9487 243.053 20.8707C243.151 21.2676 243.215 21.6693 243.214 22.0857C243.206 24.7225 243.207 27.3593 243.213 29.996C243.214 30.4458 243.14 30.8798 243.019 31.309C242.784 32.1429 242.026 32.7072 241.154 32.7092C239.132 32.7151 237.11 32.7063 235.088 32.7376C234.646 32.7445 234.561 32.6132 234.566 32.1977C234.588 30.143 234.576 28.0883 234.576 26.0335ZM177.776 14.2764C177.776 14.2764 177.77 14.2597 177.774 14.247C178.307 12.688 178.307 12.688 179.94 12.688C182.029 12.688 184.119 12.6959 186.208 12.6812C186.535 12.6782 186.611 12.7576 186.643 13.0927C186.72 13.8893 186.456 14.5605 186.051 15.2111C185.954 15.3669 185.85 15.4806 185.67 15.5178C184.971 15.6589 184.356 15.9891 183.768 16.3713C183.624 16.4644 183.568 16.5183 183.427 16.3331C182.94 15.6873 182.362 15.1014 181.634 14.7516C180.427 14.1676 179.135 14.05 177.776 14.2764ZM200.265 24.2326C199.712 22.949 199.03 21.8369 198.005 20.9677C197.799 20.7943 197.797 20.6071 197.869 20.3514C199.249 21.2293 200.668 22.0103 201.95 23.0117C201.368 23.3429 200.716 23.6221 200.265 24.2326ZM207.265 9.32129C207.003 9.02342 206.793 8.78336 206.554 8.51292C206.851 8.3875 207.145 8.48255 207.482 8.44531C207.407 8.7471 207.341 9.01264 207.265 9.32129Z" fill="#231F20"/>
<path fill-rule="evenodd" clip-rule="evenodd" d="M297.872 23.9171C299.947 23.9171 302.022 23.9269 304.096 23.9083C304.465 23.9044 304.597 23.971 304.591 24.3757C304.559 26.8919 304.632 29.4102 304.463 31.9244C304.317 34.0811 303.69 36.029 301.961 37.4625C300.471 38.6981 298.729 39.4036 296.818 39.578C293.724 39.8602 290.615 39.7554 287.518 39.6554C285.12 39.579 282.926 38.7598 281.163 37.0353C279.976 35.8742 279.369 34.4201 279.22 32.8034C278.851 28.7899 278.973 24.7686 279.094 20.7473C279.133 19.4608 279.292 18.2007 279.817 17.0151C280.799 14.7977 282.638 13.6131 284.851 12.8929C286.233 12.4422 287.662 12.352 289.105 12.3638C291.316 12.3824 293.53 12.3197 295.739 12.3932C298.194 12.4755 300.446 13.1967 302.289 14.9114C303.801 16.3194 304.326 18.1508 304.459 20.131C304.53 21.2079 304.511 21.2088 303.429 21.2088C301.045 21.2088 298.663 21.203 296.279 21.2177C295.968 21.2186 295.843 21.1354 295.764 20.8257C295.541 19.9419 294.779 19.3667 293.896 19.3677C292.645 19.3687 291.393 19.404 290.143 19.3697C288.261 19.3168 287.695 20.2829 287.664 21.6772C287.598 24.5874 287.616 27.4995 287.662 30.4096C287.675 31.3169 287.947 32.1802 288.952 32.5515C289.179 32.6358 289.405 32.7063 289.646 32.7063C291.069 32.7093 292.49 32.7112 293.912 32.7073C294.773 32.7044 295.537 32.1145 295.764 31.2817C295.914 30.7329 295.967 30.1744 295.964 29.6051C295.963 29.3033 295.893 29.1848 295.563 29.1848C294.262 29.1848 292.96 29.1407 291.658 29.1436C291.267 29.1446 291.139 29.0427 291.147 28.6302C291.175 27.2094 291.17 25.7877 291.15 24.3659C291.145 24.0132 291.231 23.9044 291.599 23.9073C293.69 23.926 295.781 23.9171 297.872 23.9171ZM252.674 25.9915C252.668 24.0563 252.657 22.1221 252.78 20.1898C253.02 16.4595 254.771 14.0207 258.82 12.8037C260.109 12.4157 261.44 12.355 262.78 12.3657C264.991 12.3824 267.204 12.3207 269.414 12.3942C271.888 12.4765 274.153 13.2045 276.002 14.9427C277.257 16.1225 277.897 17.6246 278.054 19.3001C278.416 23.1597 278.299 27.0311 278.198 30.8985C278.175 31.8059 278.112 32.7083 277.921 33.598C277.332 36.3318 275.55 37.9838 273.038 38.9656C271.485 39.5721 269.859 39.726 268.203 39.7113C265.975 39.6897 263.745 39.7553 261.519 39.6799C259.004 39.5947 256.709 38.8412 254.855 37.0431C253.647 35.8742 253.08 34.3966 252.884 32.7642C252.613 30.5125 252.68 28.25 252.674 25.9915ZM261.312 26.0258C261.312 27.327 261.319 28.6273 261.308 29.9275C261.304 30.3596 261.371 30.779 261.475 31.1935C261.713 32.1439 262.477 32.7103 263.457 32.7024C264.792 32.6926 266.128 32.6916 267.463 32.7024C268.454 32.7112 269.215 32.1557 269.459 31.2111C269.574 30.7623 269.643 30.3106 269.642 29.8442C269.634 27.3113 269.634 24.7784 269.642 22.2465C269.644 21.7615 269.574 21.2931 269.453 20.8296C269.225 19.9595 268.474 19.3687 267.585 19.3677C266.352 19.3658 265.118 19.4148 263.887 19.3667C262.31 19.305 261.519 19.9586 261.339 21.5106C261.318 21.6968 261.313 21.8859 261.313 22.0741C261.311 23.391 261.312 24.7079 261.312 26.0258Z" fill="white"/>
<path fill-rule="evenodd" clip-rule="evenodd" d="M44.4629 29.3932C44.7474 28.4084 45.0279 27.4443 45.3036 26.4781C45.8667 24.5087 46.4238 22.5382 46.9977 20.5716C47.037 20.4364 46.981 20.1719 47.2371 20.1915C47.4401 20.2081 47.393 20.4374 47.4303 20.5687C48.2779 23.4975 49.1147 26.4282 49.9632 29.3932H44.4629Z" fill="#FCFCFC"/>
<path fill-rule="evenodd" clip-rule="evenodd" d="M198.321 40.9229C198.374 40.19 198.414 39.4551 198.485 38.7241C198.532 38.242 198.485 37.7678 198.446 37.2906C198.362 36.2373 198.622 35.2163 198.754 34.1845C198.991 32.3424 199.271 30.5071 199.676 28.6934C199.773 28.2633 199.904 27.839 200.018 27.4118C200.632 25.0954 202.177 24.1303 204.489 23.8844C206.094 23.7139 207.616 24.0578 209.149 24.4517C212.686 25.36 216.015 26.7994 219.132 28.6523C221.29 29.9369 222.984 31.7574 223.78 34.2472C224.272 35.7875 223.958 37.2641 223.492 38.7525C223.027 40.2341 222.169 41.3834 220.768 42.0379C219.645 42.5631 218.458 42.9374 217.196 43.0021C215.709 43.0785 214.225 43.2059 212.733 43.2206C212.218 43.2255 211.705 43.3872 211.223 43.6096C211.08 43.6753 211.043 43.7733 210.98 43.8997C210.609 44.6492 210.34 45.439 209.945 46.1827C209.066 47.8416 207.637 48.6989 205.908 49.1575C204.754 49.4632 203.633 49.2868 202.578 48.7352C201.315 48.0757 200.239 47.2037 199.44 46.0004C198.974 45.2998 198.728 44.5444 198.642 43.7145C198.546 42.7846 198.296 41.8714 198.321 40.9229ZM192.966 29.7478C190.696 29.6821 188.501 29.1618 186.52 28.1114C185.013 27.3128 183.665 26.1841 182.791 24.6222C182.278 23.7041 182.234 22.7272 182.423 21.7434C182.586 20.8958 182.841 20.0688 183.17 19.2566C183.737 17.8603 184.802 17.0852 186.189 16.8403C187.864 16.5443 189.566 16.5679 191.217 17.1097C191.789 17.2969 192.342 17.5448 192.809 17.921C193.548 18.5158 194.458 18.8538 195.119 19.576C196.77 21.3779 197.821 23.4189 197.848 25.9068C197.86 27.063 197.414 28.0281 196.572 28.8238C195.974 29.3901 195.173 29.4038 194.449 29.6243C193.97 29.7693 193.465 29.7291 192.966 29.7478ZM189.833 41.8743C188.312 41.7577 186.772 41.6999 185.308 41.2247C183.226 40.5496 182.125 39.0092 181.663 36.9261C181.417 35.8159 181.664 34.742 181.926 33.7014C182.154 32.7941 182.985 32.2728 183.723 31.7359C184.681 31.0382 185.725 30.7678 186.923 30.7345C188.001 30.7041 189.087 30.6139 190.138 30.8001C191.471 31.0362 192.816 31.3224 194.003 32.0504C194.366 32.2738 194.725 32.5021 195.096 32.7128C196.069 33.2654 196.677 34.0845 196.903 35.18C196.984 35.5788 197.036 35.9835 197.105 36.3842C197.406 38.1254 196.514 39.2856 195.272 40.3369C194.112 41.3178 192.755 41.6274 191.312 41.7646C190.82 41.8116 190.334 41.9184 189.833 41.8743ZM205.761 14.7071C205.75 15.9525 205.824 17.2067 205.477 18.4266C204.871 20.5548 203.522 21.2437 201.536 20.6029C199.471 19.9346 197.809 18.653 196.55 16.8481C195.675 15.5919 194.971 14.274 194.518 12.8033C194.193 11.7451 194.179 10.7025 194.375 9.64134C194.436 9.31211 194.49 8.9819 194.586 8.65267C194.933 7.47686 195.756 6.77137 196.725 6.10704C197.92 5.28495 199.179 5.331 200.53 5.42899C201.715 5.51521 202.489 6.1041 203.278 6.89287C205.281 8.88882 205.857 11.3374 205.759 14.0399C205.755 14.2623 205.761 14.4847 205.761 14.7071ZM217.711 21.6209C215.663 21.6484 213.706 21.1819 211.791 20.5078C210.519 20.06 209.687 19.1057 209.308 17.8789C208.822 16.3013 208.317 14.7032 208.328 13.0208C208.337 11.8577 208.472 10.7045 208.635 9.55119C208.834 8.15491 210.191 7.40729 211.248 7.34752C213.03 7.2466 214.459 8.03047 215.742 9.22686C217.486 10.8524 218.62 12.8778 219.549 15.007C220.297 16.7237 220.522 18.5609 219.99 20.4128C219.778 21.1486 219.09 21.617 218.327 21.6209C218.122 21.6219 217.917 21.6219 217.711 21.6209ZM193.556 1.7918C194.293 1.88489 195.282 1.89371 196.033 2.64917C196.545 3.16358 196.579 3.64959 196.165 4.29727C195.853 4.78425 195.388 5.1174 194.885 5.37705C194.045 5.81015 193.452 5.65729 192.927 4.83128C192.542 4.22348 192.285 3.54315 192.174 2.8324C192.044 1.99463 192.311 1.77123 193.556 1.7918ZM179.237 15.5831C180.13 15.5214 181.057 15.9133 181.878 16.6874C182.294 17.0793 182.377 17.5036 182.245 17.971C182.095 18.5109 181.738 18.9469 181.213 19.1831C180.701 19.4133 180.246 19.4055 179.762 18.9802C179.033 18.3404 178.31 17.73 178.098 16.7256C177.92 15.8829 178.204 15.5292 179.237 15.5831ZM180.542 36.3441C180.539 36.3833 180.541 36.5753 180.496 36.7546C180.314 37.464 179.922 37.6943 179.241 37.4337C178.327 37.0848 177.456 36.6429 176.737 35.9619C176.305 35.5533 176.355 35.2653 176.885 34.9733C177.508 34.6303 178.189 34.452 178.887 34.3775C179.839 34.2776 180.543 35.0722 180.542 36.3441ZM207.432 4.40603C207.469 3.93178 207.548 3.4595 208.034 3.24099C208.468 3.04698 208.877 3.21552 209.229 3.48105C209.79 3.90533 210.328 4.3541 210.575 5.05273C210.762 5.58282 210.631 5.9973 210.155 6.27557C209.784 6.49212 209.396 6.65771 208.972 6.75178C208.33 6.89483 208.14 6.82428 207.872 6.24128C207.603 5.65925 207.489 5.03901 207.432 4.40603Z" fill="#FD0000"/>
<path fill-rule="evenodd" clip-rule="evenodd" d="M195.411 32.0516C196.481 32.0085 197.409 32.0065 198.324 31.6636C198.186 32.6287 198.049 33.5341 197.935 34.4434C197.902 34.7089 197.815 34.7315 197.628 34.5855C197.55 34.5237 197.457 34.4571 197.421 34.3719C197.02 33.4332 196.348 32.7228 195.411 32.0516Z" fill="#FCFCFC"/>
<path fill-rule="evenodd" clip-rule="evenodd" d="M261.312 26.0258C261.312 24.7079 261.311 23.391 261.313 22.0741C261.313 21.886 261.318 21.6968 261.339 21.5107C261.52 19.9596 262.31 19.305 263.887 19.3668C265.117 19.4148 266.352 19.3658 267.585 19.3677C268.474 19.3687 269.225 19.9596 269.453 20.8297C269.574 21.2941 269.644 21.7615 269.642 22.2465C269.634 24.7785 269.634 27.3114 269.642 29.8442C269.644 30.3107 269.575 30.7624 269.459 31.2111C269.214 32.1567 268.454 32.7113 267.463 32.7025C266.128 32.6917 264.792 32.6927 263.457 32.7025C262.477 32.7103 261.713 32.1439 261.475 31.1935C261.371 30.779 261.304 30.3596 261.308 29.9275C261.32 28.6273 261.312 27.327 261.312 26.0258Z" fill="#231F20"/>
</g>
<defs>
<clipPath id="clip0_46_3">
<rect width="310" height="52" fill="white"/>
</clipPath>
</defs>
</svg>
